<?xml version="1.0" standalone="no"?><!-- Generator: Gravit.io --><svg xmlns="http://www.w3.org/2000/svg" xmlns:xlink="http://www.w3.org/1999/xlink" style="isolation:isolate" viewBox="0 0 593.9 63.7" width="593.9" height="63.7"><defs><clipPath id="_clipPath_S51SX0SDDLUO7uYqkwiKfnKFbFSu9a7f"><rect width="593.9" height="63.7"/></clipPath></defs><g clip-path="url(#_clipPath_S51SX0SDDLUO7uYqkwiKfnKFbFSu9a7f)"><g id="Group"><g id="ubuntu_black-orange_hex_su"><g id="Group"><g id="Group"><path d=" M 33.931 61.479 C 32.206 61.911 29.932 62.368 27.105 62.853 C 24.275 63.336 21.003 63.579 17.288 63.579 C 14.058 63.579 11.336 63.107 9.129 62.166 C 6.92 61.225 5.143 59.892 3.797 58.168 C 2.449 56.444 1.481 54.411 0.889 52.067 C 0.295 49.726 0 47.128 0 44.272 L 0 20.683 L 7.513 20.683 L 7.513 42.656 C 7.513 47.773 8.321 51.435 9.937 53.642 C 11.553 55.853 14.271 56.956 18.096 56.956 C 18.905 56.956 19.738 56.927 20.601 56.873 C 21.461 56.82 22.271 56.751 23.026 56.671 C 23.778 56.59 24.465 56.51 25.085 56.429 C 25.704 56.349 26.149 56.256 26.419 56.146 L 26.419 20.683 L 33.933 20.683 L 33.933 61.479 L 33.931 61.479 Z " fill="rgb(0,0,0)"/><path d=" M 52.267 22.54 C 53.182 21.948 54.571 21.329 56.428 20.683 C 58.285 20.037 60.427 19.714 62.85 19.714 C 65.866 19.714 68.546 20.253 70.889 21.329 C 73.231 22.407 75.211 23.913 76.827 25.852 C 78.441 27.791 79.666 30.108 80.502 32.799 C 81.336 35.494 81.755 38.455 81.755 41.687 C 81.755 45.079 81.255 48.137 80.261 50.855 C 79.262 53.575 77.849 55.876 76.019 57.762 C 74.187 59.647 71.98 61.102 69.394 62.124 C 66.81 63.147 63.901 63.659 60.669 63.659 C 57.167 63.659 54.071 63.415 51.38 62.931 C 48.687 62.446 46.478 61.961 44.755 61.477 L 44.755 1.296 L 52.268 0.003 L 52.268 22.54 L 52.267 22.54 Z  M 52.267 56.146 C 53.022 56.362 54.085 56.566 55.459 56.751 C 56.832 56.942 58.541 57.035 60.588 57.035 C 64.627 57.035 67.859 55.701 70.281 53.036 C 72.706 50.37 73.918 46.586 73.918 41.687 C 73.918 39.534 73.702 37.514 73.272 35.625 C 72.84 33.742 72.14 32.111 71.17 30.74 C 70.201 29.365 68.948 28.289 67.414 27.508 C 65.88 26.727 64.034 26.336 61.881 26.336 C 59.832 26.336 57.949 26.688 56.227 27.387 C 54.5 28.088 53.182 28.815 52.267 29.569 L 52.267 56.146 L 52.267 56.146 Z " fill="rgb(0,0,0)"/><path d=" M 123.679 61.479 C 121.954 61.911 119.679 62.368 116.853 62.853 C 114.026 63.336 110.753 63.579 107.037 63.579 C 103.807 63.579 101.087 63.107 98.879 62.166 C 96.67 61.225 94.893 59.892 93.548 58.168 C 92.2 56.444 91.233 54.411 90.639 52.067 C 90.046 49.726 89.75 47.128 89.75 44.272 L 89.75 20.683 L 97.262 20.683 L 97.262 42.656 C 97.262 47.773 98.071 51.435 99.686 53.642 C 101.303 55.853 104.022 56.956 107.845 56.956 C 108.655 56.956 109.489 56.927 110.35 56.873 C 111.209 56.82 112.018 56.751 112.774 56.671 C 113.528 56.59 114.214 56.51 114.835 56.429 C 115.453 56.349 115.897 56.256 116.166 56.146 L 116.166 20.683 L 123.68 20.683 L 123.68 61.479 L 123.679 61.479 Z " fill="rgb(0,0,0)"/><path d=" M 134.503 21.896 C 136.226 21.464 138.513 21.007 141.37 20.521 C 144.222 20.037 147.508 19.794 151.224 19.794 C 154.564 19.794 157.337 20.267 159.544 21.208 C 161.752 22.151 163.516 23.47 164.837 25.167 C 166.154 26.862 167.083 28.896 167.623 31.265 C 168.161 33.638 168.431 36.249 168.431 39.102 L 168.431 62.69 L 160.918 62.69 L 160.918 40.717 C 160.918 38.133 160.742 35.926 160.393 34.093 C 160.042 32.26 159.464 30.78 158.656 29.651 C 157.848 28.518 156.771 27.698 155.425 27.186 C 154.079 26.672 152.407 26.418 150.418 26.418 C 149.607 26.418 148.773 26.445 147.914 26.498 C 147.052 26.553 146.228 26.619 145.45 26.701 C 144.666 26.781 143.969 26.877 143.348 26.982 C 142.728 27.091 142.285 27.171 142.015 27.224 L 142.015 62.688 L 134.503 62.688 L 134.503 21.896 Z " fill="rgb(0,0,0)"/><path d=" M 185.798 20.683 L 201.712 20.683 L 201.712 26.984 L 185.798 26.984 L 185.798 46.372 C 185.798 48.472 185.959 50.212 186.283 51.584 C 186.607 52.956 187.092 54.035 187.737 54.813 C 188.383 55.594 189.189 56.146 190.16 56.469 C 191.13 56.793 192.26 56.956 193.552 56.956 C 195.866 56.956 197.699 56.698 199.046 56.185 C 200.391 55.674 201.308 55.311 201.794 55.095 L 203.408 61.236 C 202.653 61.614 201.32 62.099 199.409 62.689 C 197.497 63.282 195.331 63.578 192.907 63.578 C 190.051 63.578 187.695 63.216 185.837 62.489 C 183.981 61.76 182.486 60.672 181.355 59.216 C 180.224 57.763 179.43 55.973 178.973 53.844 C 178.513 51.718 178.285 49.254 178.285 46.453 L 178.285 8.97 L 185.798 7.677 L 185.798 20.683 L 185.798 20.683 Z " fill="rgb(0,0,0)"/><path d=" M 242.588 61.479 C 240.862 61.911 238.589 62.368 235.762 62.853 C 232.935 63.336 229.661 63.579 225.948 63.579 C 222.716 63.579 219.996 63.107 217.787 62.166 C 215.578 61.225 213.801 59.892 212.457 58.168 C 211.109 56.444 210.141 54.411 209.547 52.067 C 208.955 49.726 208.658 47.128 208.658 44.272 L 208.658 20.683 L 216.173 20.683 L 216.173 42.656 C 216.173 47.773 216.981 51.435 218.597 53.642 C 220.211 55.853 222.931 56.956 226.756 56.956 C 227.563 56.956 228.397 56.927 229.26 56.873 C 230.119 56.82 230.927 56.751 231.682 56.671 C 232.436 56.59 233.123 56.51 233.743 56.429 C 234.36 56.349 234.806 56.256 235.077 56.146 L 235.077 20.683 L 242.59 20.683 L 242.59 61.479 L 242.588 61.479 Z " fill="rgb(0,0,0)"/></g><g id="Group"><path d=" M 249.532 16.966 C 249.532 7.602 257.134 0 266.498 0 C 275.862 0 283.464 7.602 283.464 16.966 C 283.464 26.33 275.862 33.932 266.498 33.932 C 257.134 33.932 249.532 26.33 249.532 16.966 Z " fill="rgb(233,84,32)"/><g id="Group"><path d=" M 257.917 16.966 C 257.917 18.11 256.989 19.037 255.846 19.037 C 254.701 19.037 253.774 18.109 253.774 16.966 C 253.774 15.821 254.702 14.893 255.846 14.893 C 256.989 14.893 257.917 15.821 257.917 16.966 Z  M 269.707 27.041 C 270.278 28.032 271.545 28.371 272.536 27.799 C 273.527 27.227 273.867 25.96 273.293 24.968 C 272.722 23.977 271.455 23.638 270.465 24.21 C 269.473 24.782 269.133 26.049 269.707 27.041 Z  M 273.293 8.962 C 273.867 7.971 273.527 6.704 272.536 6.132 C 271.545 5.56 270.278 5.9 269.707 6.891 C 269.133 7.882 269.473 9.149 270.465 9.722 C 271.455 10.292 272.723 9.953 273.293 8.962 Z  M 266.281 11.056 C 269.369 11.056 271.902 13.424 272.167 16.441 L 275.166 16.395 C 275.023 14.151 274.051 12.134 272.552 10.646 C 271.757 10.953 270.836 10.911 270.043 10.452 C 269.246 9.994 268.751 9.216 268.619 8.374 C 267.873 8.172 267.09 8.063 266.281 8.063 C 264.863 8.063 263.523 8.396 262.333 8.985 L 263.791 11.605 C 264.549 11.253 265.393 11.056 266.281 11.056 Z  M 260.371 16.966 C 260.371 14.966 261.365 13.199 262.885 12.13 L 261.346 9.557 C 259.563 10.747 258.234 12.565 257.673 14.694 C 258.336 15.228 258.762 16.048 258.762 16.966 C 258.762 17.884 258.336 18.703 257.673 19.237 C 258.234 21.366 259.563 23.184 261.346 24.375 L 262.885 21.802 C 261.365 20.731 260.371 18.965 260.371 16.966 Z  M 266.281 22.874 C 265.392 22.874 264.549 22.677 263.791 22.326 L 262.333 24.946 C 263.523 25.536 264.863 25.867 266.281 25.867 C 267.09 25.867 267.873 25.76 268.619 25.556 C 268.751 24.714 269.246 23.937 270.043 23.478 C 270.836 23.02 271.757 22.978 272.552 23.285 C 274.051 21.797 275.024 19.779 275.166 17.535 L 272.167 17.488 C 271.903 20.508 269.369 22.874 266.281 22.874 Z " fill="rgb(255,255,255)"/></g></g></g></g><path d=" M 433.045 61.747 L 433.045 61.747 L 433.045 61.747 Q 429.517 61.747 426.857 60.627 L 426.857 60.627 L 426.857 60.627 Q 424.197 59.507 422.377 57.491 L 422.377 57.491 L 422.377 57.491 Q 420.557 55.475 419.661 52.703 L 419.661 52.703 L 419.661 52.703 Q 418.765 49.931 418.765 46.571 L 418.765 46.571 L 418.765 46.571 Q 418.765 43.211 419.745 40.411 L 419.745 40.411 L 419.745 40.411 Q 420.725 37.611 422.517 35.567 L 422.517 35.567 L 422.517 35.567 Q 424.309 33.523 426.913 32.375 L 426.913 32.375 L 426.913 32.375 Q 429.517 31.227 432.709 31.227 L 432.709 31.227 L 432.709 31.227 Q 434.669 31.227 436.629 31.563 L 436.629 31.563 L 436.629 31.563 Q 438.589 31.899 440.381 32.627 L 440.381 32.627 L 439.205 37.051 L 439.205 37.051 Q 438.029 36.491 436.489 36.155 L 436.489 36.155 L 436.489 36.155 Q 434.949 35.819 433.213 35.819 L 433.213 35.819 L 433.213 35.819 Q 428.845 35.819 426.521 38.563 L 426.521 38.563 L 426.521 38.563 Q 424.197 41.307 424.197 46.571 L 424.197 46.571 L 424.197 46.571 Q 424.197 48.923 424.729 50.883 L 424.729 50.883 L 424.729 50.883 Q 425.261 52.843 426.409 54.243 L 426.409 54.243 L 426.409 54.243 Q 427.557 55.643 429.349 56.399 L 429.349 56.399 L 429.349 56.399 Q 431.141 57.155 433.717 57.155 L 433.717 57.155 L 433.717 57.155 Q 435.789 57.155 437.469 56.763 L 437.469 56.763 L 437.469 56.763 Q 439.149 56.371 440.101 55.923 L 440.101 55.923 L 440.829 60.291 L 440.829 60.291 Q 440.381 60.571 439.541 60.823 L 439.541 60.823 L 439.541 60.823 Q 438.701 61.075 437.637 61.271 L 437.637 61.271 L 437.637 61.271 Q 436.573 61.467 435.369 61.607 L 435.369 61.607 L 435.369 61.607 Q 434.165 61.747 433.045 61.747 Z  M 469.613 31.955 L 469.613 60.235 L 469.613 60.235 Q 467.821 60.683 464.881 61.187 L 464.881 61.187 L 464.881 61.187 Q 461.941 61.691 458.077 61.691 L 458.077 61.691 L 458.077 61.691 Q 454.717 61.691 452.421 60.711 L 452.421 60.711 L 452.421 60.711 Q 450.125 59.731 448.725 57.939 L 448.725 57.939 L 448.725 57.939 Q 447.325 56.147 446.709 53.711 L 446.709 53.711 L 446.709 53.711 Q 446.093 51.275 446.093 48.307 L 446.093 48.307 L 446.093 31.955 L 451.301 31.955 L 451.301 47.187 L 451.301 47.187 Q 451.301 52.507 452.981 54.803 L 452.981 54.803 L 452.981 54.803 Q 454.661 57.099 458.637 57.099 L 458.637 57.099 L 458.637 57.099 Q 459.477 57.099 460.373 57.043 L 460.373 57.043 L 460.373 57.043 Q 461.269 56.987 462.053 56.903 L 462.053 56.903 L 462.053 56.903 Q 462.837 56.819 463.481 56.735 L 463.481 56.735 L 463.481 56.735 Q 464.125 56.651 464.405 56.539 L 464.405 56.539 L 464.405 31.955 L 469.613 31.955 Z  M 488.037 57.267 L 487.309 61.635 L 487.309 61.635 Q 482.493 61.523 480.477 59.563 L 480.477 59.563 L 480.477 59.563 Q 478.461 57.603 478.461 53.459 L 478.461 53.459 L 478.461 18.515 L 483.669 17.619 L 483.669 52.619 L 483.669 52.619 Q 483.669 53.907 483.893 54.747 L 483.893 54.747 L 483.893 54.747 Q 484.117 55.587 484.621 56.091 L 484.621 56.091 L 484.621 56.091 Q 485.125 56.595 485.965 56.847 L 485.965 56.847 L 485.965 56.847 Q 486.805 57.099 488.037 57.267 L 488.037 57.267 Z  M 498.733 22.939 L 498.733 31.955 L 509.765 31.955 L 509.765 36.323 L 498.733 36.323 L 498.733 49.763 L 498.733 49.763 Q 498.733 51.947 499.069 53.375 L 499.069 53.375 L 499.069 53.375 Q 499.405 54.803 500.077 55.615 L 500.077 55.615 L 500.077 55.615 Q 500.749 56.427 501.757 56.763 L 501.757 56.763 L 501.757 56.763 Q 502.765 57.099 504.109 57.099 L 504.109 57.099 L 504.109 57.099 Q 506.461 57.099 507.889 56.567 L 507.889 56.567 L 507.889 56.567 Q 509.317 56.035 509.877 55.811 L 509.877 55.811 L 510.885 60.123 L 510.885 60.123 Q 510.101 60.515 508.141 61.103 L 508.141 61.103 L 508.141 61.103 Q 506.181 61.691 503.661 61.691 L 503.661 61.691 L 503.661 61.691 Q 500.693 61.691 498.761 60.935 L 498.761 60.935 L 498.761 60.935 Q 496.829 60.179 495.653 58.667 L 495.653 58.667 L 495.653 58.667 Q 494.477 57.155 494.001 54.943 L 494.001 54.943 L 494.001 54.943 Q 493.525 52.731 493.525 49.819 L 493.525 49.819 L 493.525 23.835 L 498.733 22.939 Z  M 539.557 31.955 L 539.557 60.235 L 539.557 60.235 Q 537.765 60.683 534.825 61.187 L 534.825 61.187 L 534.825 61.187 Q 531.885 61.691 528.021 61.691 L 528.021 61.691 L 528.021 61.691 Q 524.661 61.691 522.365 60.711 L 522.365 60.711 L 522.365 60.711 Q 520.069 59.731 518.669 57.939 L 518.669 57.939 L 518.669 57.939 Q 517.269 56.147 516.653 53.711 L 516.653 53.711 L 516.653 53.711 Q 516.037 51.275 516.037 48.307 L 516.037 48.307 L 516.037 31.955 L 521.245 31.955 L 521.245 47.187 L 521.245 47.187 Q 521.245 52.507 522.925 54.803 L 522.925 54.803 L 522.925 54.803 Q 524.605 57.099 528.581 57.099 L 528.581 57.099 L 528.581 57.099 Q 529.421 57.099 530.317 57.043 L 530.317 57.043 L 530.317 57.043 Q 531.213 56.987 531.997 56.903 L 531.997 56.903 L 531.997 56.903 Q 532.781 56.819 533.425 56.735 L 533.425 56.735 L 533.425 56.735 Q 534.069 56.651 534.349 56.539 L 534.349 56.539 L 534.349 31.955 L 539.557 31.955 Z  M 559.269 31.339 L 559.269 31.339 L 559.269 31.339 Q 559.941 31.339 560.809 31.423 L 560.809 31.423 L 560.809 31.423 Q 561.677 31.507 562.517 31.647 L 562.517 31.647 L 562.517 31.647 Q 563.357 31.787 564.057 31.927 L 564.057 31.927 L 564.057 31.927 Q 564.757 32.067 565.093 32.179 L 565.093 32.179 L 564.197 36.715 L 564.197 36.715 Q 563.581 36.491 562.153 36.183 L 562.153 36.183 L 562.153 36.183 Q 560.725 35.875 558.485 35.875 L 558.485 35.875 L 558.485 35.875 Q 557.029 35.875 555.601 36.183 L 555.601 36.183 L 555.601 36.183 Q 554.173 36.491 553.725 36.603 L 553.725 36.603 L 553.725 61.075 L 548.517 61.075 L 548.517 33.187 L 548.517 33.187 Q 550.365 32.515 553.109 31.927 L 553.109 31.927 L 553.109 31.927 Q 555.853 31.339 559.269 31.339 Z  M 568.509 46.571 L 568.509 46.571 L 568.509 46.571 Q 568.509 42.707 569.629 39.823 L 569.629 39.823 L 569.629 39.823 Q 570.749 36.939 572.597 35.035 L 572.597 35.035 L 572.597 35.035 Q 574.445 33.131 576.853 32.179 L 576.853 32.179 L 576.853 32.179 Q 579.261 31.227 581.781 31.227 L 581.781 31.227 L 581.781 31.227 Q 587.661 31.227 590.797 34.895 L 590.797 34.895 L 590.797 34.895 Q 593.933 38.563 593.933 46.067 L 593.933 46.067 L 593.933 46.067 Q 593.933 46.403 593.933 46.935 L 593.933 46.935 L 593.933 46.935 Q 593.933 47.467 593.877 47.915 L 593.877 47.915 L 573.941 47.915 L 573.941 47.915 Q 574.277 52.451 576.573 54.803 L 576.573 54.803 L 576.573 54.803 Q 578.869 57.155 583.741 57.155 L 583.741 57.155 L 583.741 57.155 Q 586.485 57.155 588.361 56.679 L 588.361 56.679 L 588.361 56.679 Q 590.237 56.203 591.189 55.755 L 591.189 55.755 L 591.917 60.123 L 591.917 60.123 Q 590.965 60.627 588.585 61.187 L 588.585 61.187 L 588.585 61.187 Q 586.205 61.747 583.181 61.747 L 583.181 61.747 L 583.181 61.747 Q 579.373 61.747 576.601 60.599 L 576.601 60.599 L 576.601 60.599 Q 573.829 59.451 572.037 57.435 L 572.037 57.435 L 572.037 57.435 Q 570.245 55.419 569.377 52.647 L 569.377 52.647 L 569.377 52.647 Q 568.509 49.875 568.509 46.571 Z  M 574.053 43.715 L 588.501 43.715 L 588.501 43.715 Q 588.557 40.187 586.737 37.919 L 586.737 37.919 L 586.737 37.919 Q 584.917 35.651 581.725 35.651 L 581.725 35.651 L 581.725 35.651 Q 579.933 35.651 578.561 36.351 L 578.561 36.351 L 578.561 36.351 Q 577.189 37.051 576.237 38.171 L 576.237 38.171 L 576.237 38.171 Q 575.285 39.291 574.753 40.747 L 574.753 40.747 L 574.753 40.747 Q 574.221 42.203 574.053 43.715 L 574.053 43.715 Z  M 312.981 17.619 L 312.981 17.619 L 312.981 17.619 Q 315.277 17.619 316.929 17.955 L 316.929 17.955 L 316.929 17.955 Q 318.581 18.291 319.253 18.571 L 319.253 18.571 L 318.301 23.051 L 318.301 23.051 Q 317.629 22.715 316.397 22.407 L 316.397 22.407 L 316.397 22.407 Q 315.165 22.099 313.373 22.099 L 313.373 22.099 L 313.373 22.099 Q 309.733 22.099 308.277 24.087 L 308.277 24.087 L 308.277 24.087 Q 306.821 26.075 306.821 29.435 L 306.821 29.435 L 306.821 31.955 L 318.021 31.955 L 318.021 36.323 L 306.821 36.323 L 306.821 61.075 L 301.613 61.075 L 301.613 29.323 L 301.613 29.323 Q 301.613 23.723 304.357 20.671 L 304.357 20.671 L 304.357 20.671 Q 307.101 17.619 312.981 17.619 Z  M 333.981 31.339 L 333.981 31.339 L 333.981 31.339 Q 334.653 31.339 335.521 31.423 L 335.521 31.423 L 335.521 31.423 Q 336.389 31.507 337.229 31.647 L 337.229 31.647 L 337.229 31.647 Q 338.069 31.787 338.769 31.927 L 338.769 31.927 L 338.769 31.927 Q 339.469 32.067 339.805 32.179 L 339.805 32.179 L 338.909 36.715 L 338.909 36.715 Q 338.293 36.491 336.865 36.183 L 336.865 36.183 L 336.865 36.183 Q 335.437 35.875 333.197 35.875 L 333.197 35.875 L 333.197 35.875 Q 331.741 35.875 330.313 36.183 L 330.313 36.183 L 330.313 36.183 Q 328.885 36.491 328.437 36.603 L 328.437 36.603 L 328.437 61.075 L 323.229 61.075 L 323.229 33.187 L 323.229 33.187 Q 325.077 32.515 327.821 31.927 L 327.821 31.927 L 327.821 31.927 Q 330.565 31.339 333.981 31.339 Z  M 343.221 46.571 L 343.221 46.571 L 343.221 46.571 Q 343.221 42.707 344.341 39.823 L 344.341 39.823 L 344.341 39.823 Q 345.461 36.939 347.309 35.035 L 347.309 35.035 L 347.309 35.035 Q 349.157 33.131 351.565 32.179 L 351.565 32.179 L 351.565 32.179 Q 353.973 31.227 356.493 31.227 L 356.493 31.227 L 356.493 31.227 Q 362.373 31.227 365.509 34.895 L 365.509 34.895 L 365.509 34.895 Q 368.645 38.563 368.645 46.067 L 368.645 46.067 L 368.645 46.067 Q 368.645 46.403 368.645 46.935 L 368.645 46.935 L 368.645 46.935 Q 368.645 47.467 368.589 47.915 L 368.589 47.915 L 348.653 47.915 L 348.653 47.915 Q 348.989 52.451 351.285 54.803 L 351.285 54.803 L 351.285 54.803 Q 353.581 57.155 358.453 57.155 L 358.453 57.155 L 358.453 57.155 Q 361.197 57.155 363.073 56.679 L 363.073 56.679 L 363.073 56.679 Q 364.949 56.203 365.901 55.755 L 365.901 55.755 L 366.629 60.123 L 366.629 60.123 Q 365.677 60.627 363.297 61.187 L 363.297 61.187 L 363.297 61.187 Q 360.917 61.747 357.893 61.747 L 357.893 61.747 L 357.893 61.747 Q 354.085 61.747 351.313 60.599 L 351.313 60.599 L 351.313 60.599 Q 348.541 59.451 346.749 57.435 L 346.749 57.435 L 346.749 57.435 Q 344.957 55.419 344.089 52.647 L 344.089 52.647 L 344.089 52.647 Q 343.221 49.875 343.221 46.571 Z  M 348.765 43.715 L 363.213 43.715 L 363.213 43.715 Q 363.269 40.187 361.449 37.919 L 361.449 37.919 L 361.449 37.919 Q 359.629 35.651 356.437 35.651 L 356.437 35.651 L 356.437 35.651 Q 354.645 35.651 353.273 36.351 L 353.273 36.351 L 353.273 36.351 Q 351.901 37.051 350.949 38.171 L 350.949 38.171 L 350.949 38.171 Q 349.997 39.291 349.465 40.747 L 349.465 40.747 L 349.465 40.747 Q 348.933 42.203 348.765 43.715 L 348.765 43.715 Z  M 374.525 46.571 L 374.525 46.571 L 374.525 46.571 Q 374.525 42.707 375.645 39.823 L 375.645 39.823 L 375.645 39.823 Q 376.765 36.939 378.613 35.035 L 378.613 35.035 L 378.613 35.035 Q 380.461 33.131 382.869 32.179 L 382.869 32.179 L 382.869 32.179 Q 385.277 31.227 387.797 31.227 L 387.797 31.227 L 387.797 31.227 Q 393.677 31.227 396.813 34.895 L 396.813 34.895 L 396.813 34.895 Q 399.949 38.563 399.949 46.067 L 399.949 46.067 L 399.949 46.067 Q 399.949 46.403 399.949 46.935 L 399.949 46.935 L 399.949 46.935 Q 399.949 47.467 399.893 47.915 L 399.893 47.915 L 379.957 47.915 L 379.957 47.915 Q 380.293 52.451 382.589 54.803 L 382.589 54.803 L 382.589 54.803 Q 384.885 57.155 389.757 57.155 L 389.757 57.155 L 389.757 57.155 Q 392.501 57.155 394.377 56.679 L 394.377 56.679 L 394.377 56.679 Q 396.253 56.203 397.205 55.755 L 397.205 55.755 L 397.933 60.123 L 397.933 60.123 Q 396.981 60.627 394.601 61.187 L 394.601 61.187 L 394.601 61.187 Q 392.221 61.747 389.197 61.747 L 389.197 61.747 L 389.197 61.747 Q 385.389 61.747 382.617 60.599 L 382.617 60.599 L 382.617 60.599 Q 379.845 59.451 378.053 57.435 L 378.053 57.435 L 378.053 57.435 Q 376.261 55.419 375.393 52.647 L 375.393 52.647 L 375.393 52.647 Q 374.525 49.875 374.525 46.571 Z  M 380.069 43.715 L 394.517 43.715 L 394.517 43.715 Q 394.573 40.187 392.753 37.919 L 392.753 37.919 L 392.753 37.919 Q 390.933 35.651 387.741 35.651 L 387.741 35.651 L 387.741 35.651 Q 385.949 35.651 384.577 36.351 L 384.577 36.351 L 384.577 36.351 Q 383.205 37.051 382.253 38.171 L 382.253 38.171 L 382.253 38.171 Q 381.301 39.291 380.769 40.747 L 380.769 40.747 L 380.769 40.747 Q 380.237 42.203 380.069 43.715 L 380.069 43.715 Z " fill-rule="evenodd" fill="rgb(0,0,0)"/></g></g></svg>